<svg xmlns="http://www.w3.org/2000/svg" enable-background="new 0 0 1166 456" viewBox="0 0 1166 456"><style type="text/css">.st0{fill:#2c9eba}.st1{fill:#3aa4bf}.st2{fill:#63c0d5}.st3{fill:#49b7cd}.st4{fill:#7dcddf}.st5{fill:#54b9d0}</style><path d="M104.9 304.9l58.1-145.8 96.7-62.5-58.1 208.3z" class="st0"/><path d="M259.7 96.6l77.4 208.3h-135.5z" class="st1"/><path d="M356.4 138.3l-96.7-41.7 77.4 208.4zM453.2 304.9h-116.1l19.3-166.6 58.1 41.6z" class="st2"/><path d="M378.2 288.8l20.2-160.3 66-128.4 6.2 253.7z" class="st0"/><path d="M464.4.1l135.6 204.6-129.4 49.1z" class="st1"/><path d="M568.8 21.7l-104.4-21.6 135.6 204.6z" class="st3"/><path d="M710.9 162.7l-110.9 42-31.2-183 74.9 35.6z" class="st4"/><path d="M130.4 455.9l48.8-238.6 113.8 238.6z" class="st3"/><path d="M81.7 455.9l-16.3-119.2 113.8-119.4-48.8 238.6z" class="st1"/><path d="M.4 455.9l65-119.3 16.3 119.3z" class="st0"/><path d="M179.2 217.4l211.3 85.1-16.3 153.4h-81.2zM586.9 166l252.5-129.5-184.4 266.1z" class="st2"/><path d="M839.4 36.5l-12.3 281.3-172.1-15.2z" class="st3"/><path d="M929.2 319l-89.8-282.5-12.3 281.3zM1061.1 306.9l-58.1-145.9-96.7-62.5 58.1 208.4z" class="st0"/><path d="M906.3 98.6l-77.4 208.3h135.5z" class="st1"/><path d="M809.6 140.1l96.7-41.7-77.4 208.4zM712.8 306.9h116.1l-19.3-166.7-58.1 41.7z" class="st2"/><path d="M787.8 290.6l-20.2-160.4-77.3-94.7 5.1 220z" class="st0"/><path d="M690.3 35.5l-124.3 171 129.4 49z" class="st1"/><path d="M587.9 40.3l102.4-4.8-124.3 171z" class="st3"/><path d="M455.1 164.4l110.9 42.1 21.9-166.2-65.6 18.7z" class="st4"/><path d="M1035.6 455.9l-48.8-238.6-113.8 238.6z" class="st3"/><path d="M1084.3 455.9l16.3-119.3-113.8-119.3 48.8 238.6z" class="st1"/><path d="M1165.6 455.9l-65-119.3-16.3 119.3z" class="st0"/><path d="M986.8 217.3l-211.3 85.2 16.3 153.4h81.2z" class="st2"/><path d="M914.9 366.4l-111.5-264.2v238.6z" class="st0"/><path d="M803.4 102.2l-139.3 153.4 139.3 85.2z" class="st1"/><path d="M552.6 255.9l250.8-153.4-139.3 153.4z" class="st3"/><path d="M579.1 167.8l-252.5-129.5 184.4 266z" class="st2"/><path d="M326.6 38.3l12.3 281.3 172.1-15.3z" class="st3"/><path d="M236.8 320.8l89.8-282.5 12.3 281.3z" class="st0"/><path d="M364.6 149.1l-167.2 230.1 97.5-42.6z" class="st1"/><path d="M364.6 149.1l-90.6 213 243.8-8.5z" class="st5"/><path d="M489.9 174.6l-125.3-25.5 139.3 187.5z" class="st4"/><path d="M838.2 353.6l-13.9-144.9-118.4 127.9z" class="st1"/><path d="M824.3 208.4l-97.5-25.7-55.8 153.2h34.9z" class="st3"/><path d="M622.3 106.1l104.5 76.6-55.8 153.2h-41.7zM622.3 106.1l-132.4 68 14 161.8h13.9z" class="st5"/><path d="M643.2 335.9h-125.4l104.5-230.1z" class="st2"/><path d="M970.5 455.9l-41.7-110.8-41.8 110.8z" class="st0"/><path d="M832.4 315.3l96.9 29.8-42.3 110.8h-54.6z" class="st1"/><path d="M274 234.3l125.4 221.6h-111.4z" class="st3"/><path d="M176.5 370.7l97.5-136.4 14 221.6h-69.7z" class="st4"/><path d="M92.9 455.9h125.4l-41.8-85.2zM524.8 336.6l-250.8-102.3 125.4 221.6h97.5z" class="st2"/><path d="M705.9 217.3l-181.1 119.3-27.9 119.3h83.6z" class="st4"/><path d="M810.3 455.9l-104.4-238.6-125.4 238.6z" class="st2"/><path d="M832.4 315.3l-125.9-98 103.8 238.6h22.1z" class="st5"/></svg>