<svg xmlns="http://www.w3.org/2000/svg" viewBox="0 0 331.9 338"><defs><style>.cls-1{fill:#50c3d6}.cls-2{fill:#8ee0ed}.cls-3{fill:#4087a3}.cls-4{fill:#48397c}.cls-5{fill:#5f498e}.cls-6{fill:#705ea5}.cls-7{fill:#7e71b5}.cls-8{fill:#3e2a75}.cls-9{fill:#2c1954}</style></defs><title>Asset 4</title><g id="Layer_2" data-name="Layer 2"><g id="Layer_1-2" data-name="Layer 1"><g id="Tree"><polygon points="51.52 169.57 38.64 163.13 32.2 227.54 51.52 233.98 51.52 169.57" class="cls-1"/><polygon points="70.84 227.54 51.52 233.98 51.52 169.57 64.41 163.13 70.84 227.54" class="cls-2"/><polygon points="38.64 163.13 51.52 156.69 51.52 188.89 36.23 187.28 38.64 163.13" class="cls-3"/><polygon points="64.41 163.13 51.52 156.69 51.52 188.89 65.61 176.01 64.41 163.13" class="cls-1"/><polygon points="0 118.05 51.52 143.81 12.88 66.52 0 118.05" class="cls-4"/><polygon points="103.05 118.05 90.17 66.52 51.52 143.81 103.05 118.05" class="cls-5"/><polygon points="51.52 79.41 90.17 66.52 51.52 143.81 51.52 79.41" class="cls-6"/><polygon points="12.88 66.52 51.52 79.41 51.52 143.81 12.88 66.52" class="cls-5"/><polygon points="12.88 66.52 51.52 15 51.52 79.41 12.88 66.52" class="cls-6"/><polygon points="90.17 66.52 51.52 79.41 51.52 15 90.17 66.52" class="cls-7"/><polygon points="103.05 118.05 77.29 169.57 51.52 143.81 103.05 118.05" class="cls-4"/><polygon points="0 118.05 25.76 169.57 51.52 143.81 0 118.05" class="cls-8"/><polygon points="51.52 176.01 25.76 169.57 51.52 143.81 51.52 176.01" class="cls-9"/><polygon points="77.29 169.57 51.52 176.01 51.52 143.81 77.29 169.57" class="cls-8"/></g><g id="Tree-2" data-name="Tree"><polygon points="293.45 115.36 283.84 110.55 279.03 158.62 293.45 163.42 293.45 115.36" class="cls-1"/><polygon points="307.87 158.62 293.45 163.42 293.45 115.36 303.06 110.55 307.87 158.62" class="cls-2"/><polygon points="283.84 110.55 293.45 105.74 293.45 129.78 282.04 128.57 283.84 110.55" class="cls-3"/><polygon points="303.06 110.55 293.45 105.74 293.45 129.78 303.97 120.16 303.06 110.55" class="cls-1"/><polygon points="255 76.91 293.45 96.13 264.61 38.45 255 76.91" class="cls-4"/><polygon points="331.9 76.91 322.29 38.45 293.45 96.13 331.9 76.91" class="cls-5"/><polygon points="293.45 48.06 322.29 38.45 293.45 96.13 293.45 48.06" class="cls-6"/><polygon points="264.61 38.45 293.45 48.06 293.45 96.13 264.61 38.45" class="cls-5"/><polygon points="264.61 38.45 293.45 0 293.45 48.06 264.61 38.45" class="cls-6"/><polygon points="322.29 38.45 293.45 48.06 293.45 0 322.29 38.45" class="cls-7"/><polygon points="331.9 76.91 312.68 115.36 293.45 96.13 331.9 76.91" class="cls-4"/><polygon points="255 76.91 274.23 115.36 293.45 96.13 255 76.91" class="cls-8"/><polygon points="293.45 120.16 274.23 115.36 293.45 96.13 293.45 120.16" class="cls-9"/><polygon points="312.68 115.36 293.45 120.16 293.45 96.13 312.68 115.36" class="cls-8"/></g><g id="Tree-3" data-name="Tree"><polygon points="195.43 247.52 177.33 238.48 168.29 328.95 195.43 338 195.43 247.52" class="cls-1"/><polygon points="222.57 328.95 195.43 338 195.43 247.52 213.52 238.48 222.57 328.95" class="cls-2"/><polygon points="177.33 238.48 195.43 229.43 195.43 274.67 173.94 272.4 177.33 238.48" class="cls-3"/><polygon points="213.52 238.48 195.43 229.43 195.43 274.67 215.22 256.57 213.52 238.48" class="cls-1"/><polygon points="123.05 175.14 195.43 211.33 141.14 102.76 123.05 175.14" class="cls-4"/><polygon points="267.81 175.14 249.71 102.76 195.43 211.33 267.81 175.14" class="cls-5"/><polygon points="195.43 120.86 249.71 102.76 195.43 211.33 195.43 120.86" class="cls-6"/><polygon points="141.14 102.76 195.43 120.86 195.43 211.33 141.14 102.76" class="cls-5"/><polygon points="141.14 102.76 195.43 30.38 195.43 120.86 141.14 102.76" class="cls-6"/><polygon points="249.71 102.76 195.43 120.86 195.43 30.38 249.71 102.76" class="cls-7"/><polygon points="267.81 175.14 231.62 247.52 195.43 211.33 267.81 175.14" class="cls-4"/><polygon points="123.05 175.14 159.24 247.52 195.43 211.33 123.05 175.14" class="cls-8"/><polygon points="195.43 256.57 159.24 247.52 195.43 211.33 195.43 256.57" class="cls-9"/><polygon points="231.62 247.52 195.43 256.57 195.43 211.33 231.62 247.52" class="cls-8"/></g></g></g></svg>